<svg id="Layer_1" data-name="Layer 1" xmlns="http://www.w3.org/2000/svg" viewBox="0 0 16.31 457.06"><defs><style>.cls-1{fill:#1fbbb0;}</style></defs><title>education-step</title><circle class="cls-1" cx="8.16" cy="8.16" r="8.16"/><circle class="cls-1" cx="8.16" cy="272.6" r="8.16"/><circle class="cls-1" cx="8.16" cy="96.31" r="8.16"/><circle class="cls-1" cx="8.16" cy="184.46" r="8.16"/><circle class="cls-1" cx="8.16" cy="360.75" r="8.16"/><rect class="cls-1" x="6.12" y="18.73" width="4.08" height="25.42"/><rect class="cls-1" x="6.12" y="47.29" width="4.08" height="25.42"/><rect class="cls-1" x="6.12" y="75.85" width="4.08" height="25.42"/><rect class="cls-1" x="6.12" y="104.41" width="4.08" height="25.42"/><rect class="cls-1" x="6.12" y="132.98" width="4.08" height="25.42"/><rect class="cls-1" x="6.12" y="161.54" width="4.08" height="25.42"/><rect class="cls-1" x="6.12" y="190.1" width="4.08" height="25.42"/><rect class="cls-1" x="6.12" y="218.66" width="4.08" height="25.42"/><rect class="cls-1" x="6.12" y="247.22" width="4.08" height="25.42"/><rect class="cls-1" x="6.12" y="275.79" width="4.08" height="25.42"/><rect class="cls-1" x="6.12" y="304.35" width="4.08" height="25.42"/><rect class="cls-1" x="6.12" y="332.91" width="4.08" height="25.42"/><circle class="cls-1" cx="8.16" cy="448.9" r="8.16"/><rect class="cls-1" x="6.12" y="361.47" width="4.08" height="25.42"/><rect class="cls-1" x="6.12" y="390.03" width="4.08" height="25.42"/><rect class="cls-1" x="6.12" y="418.6" width="4.08" height="25.42"/></svg>