<svg id="Слой_1" data-name="Слой 1" xmlns="http://www.w3.org/2000/svg" viewBox="0 0 2870.34 1283.99"><defs><style>.cls-1{fill:#b6fff8;}.cls-2{fill:#13a594;}.cls-3{fill:#ffb27d;}.cls-4{fill:#00493b;}.cls-5{fill:#efcbab;}.cls-6{fill:#d8a987;}.cls-7{fill:#233862;}.cls-8{fill:#ed985f;}.cls-9{fill:#132644;}.cls-10{fill:#fff;}.cls-11{fill:#d2e3fc;}.cls-12{fill:#ee9849;}.cls-13{fill:#04705b;}.cls-14{fill:#bc3f3f;}.cls-15{fill:#fff0e6;}.cls-16{fill:#fcecdb;}.cls-17{fill:#932424;}.cls-18{fill:#1c468a;}.cls-19{fill:#ef9e67;}.cls-20{fill:#a53d38;}.cls-21{fill:#c45446;}.cls-22{fill:#912f2f;}.cls-23{fill:#9b2323;}.cls-24{fill:#c94c43;}.cls-25{fill:#ed975d;}.cls-26{fill:#f99746;}.cls-27{fill:#ddb08e;}.cls-28{fill:#b56f40;}.cls-29{fill:#99592e;}.cls-30{fill:#2c3a64;}.cls-31{fill:#82b378;}.cls-32{fill:#ef7e29;}.cls-33{fill:#aa443e;}.cls-34{fill:#6bb7bf;}.cls-35{fill:#86d1cd;}.cls-36{fill:#5685d8;}.cls-37{fill:#739af0;}.cls-38{fill:#ed7d2b;}</style></defs><title>5853</title><path class="cls-1" d="M242.8,1534S34.48,1084.12,275.42,803.78C473.49,573.31,742.68,528,951.83,666.82c89.08,59.12,337.84,45.09,637.54-236.16C1978.61,65.4,2954.31,267.9,2765.91,998.17c-91.18,353.4,299.27,183.28,111.42,536.54Z" transform="translate(-159.17 -253.07)"/><rect class="cls-2" x="20.13" y="1276.43" width="2850.21" height="7.56" rx="3.23"/><polygon class="cls-3" points="405.08 755.98 395.55 860.26 409.72 862.47 449.83 769.68 405.08 755.98"/><path class="cls-3" d="M570.74,1104.79s-3.3,10.92-1.24,19c1.37,5.43-7.06,12.88-16.38,23.17-.94,1-2.69,0-2.49-1.39a10.66,10.66,0,0,1,.76-2.57c1.69-3.92,6.53-10.72,6.53-10.72-.39-1.52-10.32,3.83-15.93,7.55-3.25,2.15-12.68,12.33-15.19,10.81s1.55-11.31,5.91-18.52,20-13.31,22-18.85S570.74,1104.79,570.74,1104.79Z" transform="translate(-159.17 -253.07)"/><polygon class="cls-4" points="457.36 377.79 561.19 333.51 656.91 379.17 561.19 427.75 457.36 377.79"/><path class="cls-5" d="M633.33,681.73l1.48-2c-20.91-15.73-16.85-42-15.59-48a2,2,0,0,0-.8-2h0a1.09,1.09,0,0,0-1.7.68C615.35,637.4,611.52,665.32,633.33,681.73Z" transform="translate(-159.17 -253.07)"/><polygon class="cls-6" points="475.63 426.7 478.76 427.87 476.15 431.21 474.16 428.67 475.63 426.7"/><path class="cls-5" d="M637.93,680.93s3.88,2.81,5.24,2c0,0-1.27,3.69-3.16,4.08,0,0-3.52-1.18-4.69-2.68Z" transform="translate(-159.17 -253.07)"/><polygon class="cls-3" points="524.46 1169.15 517.41 1198.78 508.07 1238.08 478.86 1238.08 477.12 1200.43 475.77 1171.4 524.46 1169.15"/><path class="cls-7" d="M626.48,1534.32s0-14.3,2-19.06,9.51-24.11,9.51-24.11h29.21s5.43,17.66,5.77,23.43,0,19.74,0,19.74Z" transform="translate(-159.17 -253.07)"/><path class="cls-7" d="M811.94,1534.32s0-14.3-2-19.06-9.51-24.11-9.51-24.11H771.18s-5.43,17.66-5.77,23.43,0,19.74,0,19.74Z" transform="translate(-159.17 -253.07)"/><path class="cls-3" d="M694.92,731.68s-1,31.85-5.11,46.11l-32.25,69.53,71.38,98.83,50-127.69-29-40s-8.74-42.69-4.15-58.48S694.92,731.68,694.92,731.68Z" transform="translate(-159.17 -253.07)"/><path class="cls-8" d="M694.74,736.08s9.6,23.12,27.69,22.61,22.2-21,22.2-21Z" transform="translate(-159.17 -253.07)"/><path class="cls-9" d="M684,717.37s-5.84-29.16-9.92-38-7.47-48.23,37.7-50.27c0,0,17.32,2,26.83-3.74,0,0,0,5.78-2.37,7.81,0,0,11.76-7.4,24,6.19s-4.28,64.8-3.26,76Z" transform="translate(-159.17 -253.07)"/><path class="cls-3" d="M720.36,749.75c-13.11-.23-37.23-17.68-37.23-39.29V676.74c0-7.89,5.5-14.35,12.23-14.35h50c6.72,0,12.22,6.46,12.22,14.35v31.82C757.58,731.21,735.39,750,720.36,749.75Z" transform="translate(-159.17 -253.07)"/><path class="cls-9" d="M683.13,694.75s.07-20.26,16.12-23.38,52,9.88,57.06-4.9-69.43-14.52-73.18-5.09S683.13,694.75,683.13,694.75Z" transform="translate(-159.17 -253.07)"/><path class="cls-10" d="M689.82,777.79l29.87,6.7,30.19-7.27,7.7,46.34L723.7,938.9,686.63,800.68Z" transform="translate(-159.17 -253.07)"/><polygon class="cls-11" points="529.18 534.2 552.91 551.92 560.68 539.19 567.87 551.92 593.15 529.9 588.17 524.15 560.52 531.43 530.65 530.08 529.18 534.2"/><path class="cls-12" d="M812.64,1038.82l-71.08,4.44c-.41-.67-.87-.67-1.38.08l-20.91,1.31-89.13-5.56s-22.42,102.32-13.61,238.67c2.81,43.5,9.09,172.32,15.07,217.88l61.09.64c7.92-51.52,17.08-180.09,22-202.17q3.34-15,6.25-29.8c1.76,11.2,2.9,20.29,2.87,26,0,9.06,2.6,23.48,6.27,40.86,5.14,24.48,20.25,137.34,24.76,166.81H819c.77-40.6,4.25-178.49,5-220.18C825.87,1166.57,812.64,1038.82,812.64,1038.82Z" transform="translate(-159.17 -253.07)"/><path class="cls-13" d="M861.71,1398.3c-32.68,17.13-255.22,37.43-295.11-9.64-6.79-8,88-604.17,88-604.17s6.11-1.76,16.42-3.7c5.26-1,11.6-2,18.78-2.89.08,2.23,15.45,99.05,36.35,136.8,0,0,23.7-52.1,23.85-136.25a9.62,9.62,0,0,0-.15-1.23c4.48.48,9,1.1,13.59,1.89q2.89.5,5.79,1.09a188.61,188.61,0,0,1,22,5.8S868.52,1394.73,861.71,1398.3Z" transform="translate(-159.17 -253.07)"/><path class="cls-13" d="M680.44,779s-34.05,261.57-47.11,281.17c-5.47,8.21-13.47,9.55-22.89,7.71a56.45,56.45,0,0,1-5.54-1.36l-26.12-10-.11,0c-4.23-1.69-8.5-3.29-12.77-4.61-26.82-8.31-24.74-30.9-17.52-61.69s54.53-179,70.49-189.51C647.08,782.21,680.44,779,680.44,779Z" transform="translate(-159.17 -253.07)"/><path class="cls-3" d="M749.88,777.22a269.21,269.21,0,0,0-60,.68.87.87,0,0,1,0-.11S745.4,743.41,749.88,777.22Z" transform="translate(-159.17 -253.07)"/><path class="cls-14" d="M730.31,938.9c-34.39-25.32-59.26-158.11-59.26-158.11,5.26-1,11.6-2,18.78-2.89.08,2.23,14.59,93.72,35.49,131.48,0,0,24.56-46.78,24.71-130.93a9.62,9.62,0,0,0-.15-1.23c4.48.48,9,1.1,13.59,1.89q2.89.5,5.79,1.09C769.32,851.07,730.31,938.9,730.31,938.9Z" transform="translate(-159.17 -253.07)"/><path class="cls-15" d="M708.75,724.76s15.68-1.57,23,.2c0,0-3.94,6.33-10.3,6.27S710.27,728.81,708.75,724.76Z" transform="translate(-159.17 -253.07)"/><path class="cls-13" d="M670.88,646.29l.94,15.27s35.18-23.51,92.88-1.93l-.8-22.08a15.18,15.18,0,0,0-7.31-10.23c-10.82-6.22-36.16-17.78-76.21,1.56C674.77,631.59,671.25,640.07,670.88,646.29Z" transform="translate(-159.17 -253.07)"/><polygon class="cls-10" points="533.27 510.68 521.27 525.95 553 547.62 560.52 531.43 533.27 510.68"/><polygon class="cls-10" points="588.27 510.68 560.52 531.43 568.48 547.62 595.79 524.76 588.27 510.68"/><path class="cls-11" d="M718.79,820.29a2.19,2.19,0,1,1,0,3.09A2.18,2.18,0,0,1,718.79,820.29Z" transform="translate(-159.17 -253.07)"/><circle class="cls-11" cx="561.17" cy="592.33" r="2.19"/><path class="cls-11" d="M718.79,868.1a2.19,2.19,0,1,1,0,3.1A2.2,2.2,0,0,1,718.79,868.1Z" transform="translate(-159.17 -253.07)"/><path class="cls-13" d="M791.3,786s21.39,8.89,32.82,35.09S883,918.85,881.65,952.37s-7.82,64-39.73,65c-21.89.71-44.19-20.72-44.19-52.77S791.3,786,791.3,786Z" transform="translate(-159.17 -253.07)"/><path class="cls-4" d="M859.24,998.62c-.86,9-4.24,16.34-12.33,18.36-25.58,6.4-36.9-18.29-31.51-42.48.17-.81.38-1.58.61-2.32,5.46-17.68,25.11-20.39,32.36-20.78,1.71-.1,2.73-.07,2.73-.07l.4,1.15C853.34,957.9,860.88,981.42,859.24,998.62Z" transform="translate(-159.17 -253.07)"/><path class="cls-3" d="M859.24,998.62s-74.58-33.56-104.11-72.11c-2.18-2.84,3.41-6.32,3.41-6.32l89.83,31.21,3.13,1.08C853.34,957.9,860.88,981.42,859.24,998.62Z" transform="translate(-159.17 -253.07)"/><rect class="cls-16" x="513.79" y="668.95" width="98.54" height="129.86"/><polygon class="cls-17" points="554.28 760.49 543.2 779 550.21 778 553.21 783.58 562.62 766.55 554.28 760.49"/><polygon class="cls-17" points="568.97 759.34 580.04 777.86 573.04 776.85 570.03 782.43 560.62 765.41 568.97 759.34"/><path class="cls-14" d="M709.55,1009.47c1.24-8.1,5.58-11.27,12.3-12.29,8.77-1.34,12.3,5.5,12.3,12.29a12.3,12.3,0,0,1-12.3,12.3C715.06,1021.77,708.52,1016.19,709.55,1009.47Z" transform="translate(-159.17 -253.07)"/><path class="cls-17" d="M721.83,1019.27a10.65,10.65,0,0,1-7.89-3.6,7.72,7.72,0,0,1-1.91-6.3h0c.89-5.84,3.89-8.84,9.72-9.73a8.05,8.05,0,0,1,6.73,1.63c2,1.73,3.17,4.71,3.17,8.18A9.83,9.83,0,0,1,721.83,1019.27Zm1.61-18.62a9.09,9.09,0,0,0-1.52.13c-5.32.81-7.94,3.43-8.76,8.76h0a6.66,6.66,0,0,0,1.65,5.39,9.47,9.47,0,0,0,7,3.19,8.68,8.68,0,0,0,8.68-8.67c0-3.14-1-5.8-2.77-7.31A6.37,6.37,0,0,0,723.44,1000.65Z" transform="translate(-159.17 -253.07)"/><path class="cls-18" d="M736,937.65H708.52a.83.83,0,0,1-.83-.83h0a.83.83,0,0,1,.83-.82H736a.82.82,0,0,1,.82.82h0A.83.83,0,0,1,736,937.65Z" transform="translate(-159.17 -253.07)"/><path class="cls-18" d="M741.27,941.11H703.2a.83.83,0,0,1-.83-.83h0a.83.83,0,0,1,.83-.82h38.07a.82.82,0,0,1,.82.82h0A.83.83,0,0,1,741.27,941.11Z" transform="translate(-159.17 -253.07)"/><path class="cls-18" d="M750.31,969.77H694.15a.94.94,0,0,1-.94-.94h0a.94.94,0,0,1,.94-.94h56.16a1,1,0,0,1,1,.94h0A1,1,0,0,1,750.31,969.77Z" transform="translate(-159.17 -253.07)"/><path class="cls-18" d="M750.31,974.5H694.15a1,1,0,0,1-.94-1h0a.94.94,0,0,1,.94-.94h56.16a1,1,0,0,1,1,.94h0A1,1,0,0,1,750.31,974.5Z" transform="translate(-159.17 -253.07)"/><path class="cls-18" d="M750.31,978.62H694.15a.94.94,0,0,1-.94-.94h0a1,1,0,0,1,.94-.95h56.16a1,1,0,0,1,1,.95h0A1,1,0,0,1,750.31,978.62Z" transform="translate(-159.17 -253.07)"/><path class="cls-18" d="M750.31,983.14H694.15a.94.94,0,0,1-.94-.94h0a.94.94,0,0,1,.94-.94h56.16a1,1,0,0,1,1,.94h0A1,1,0,0,1,750.31,983.14Z" transform="translate(-159.17 -253.07)"/><path class="cls-18" d="M755,1009.94a38.4,38.4,0,0,1-5.66,3.81,4.5,4.5,0,0,0,.28-1.57c0-.67-.57-1-1.11-1.25l-.38-.21a.7.7,0,0,0,.18-.8.58.58,0,0,0-1.08,0,.87.87,0,0,0-.08.26.87.87,0,0,1-.21-.17c.33-.61.64-1.24.93-1.87a.35.35,0,0,0-.14-.4,1.1,1.1,0,0,0-1.5.2,2,2,0,0,0-.12,1.95.5.5,0,0,1,.05.13c-.42.75-.87,1.48-1.36,2.2l-.13-.14a2.22,2.22,0,0,1-.38-.46,6.58,6.58,0,0,0,.41-1.83.34.34,0,0,0-.49-.33,1.48,1.48,0,0,0-.93,1.59,2,2,0,0,0,.22.67,5.62,5.62,0,0,1-.53.92.32.32,0,0,0,.12.48,4.72,4.72,0,0,1-1,2c-.4.42-1.15.74-1.64.24a2,2,0,0,1-.4-1.27A23.42,23.42,0,0,1,740,1011a4.85,4.85,0,0,1,.24-1.46c.1-.29.25-.72.39-.23a2.83,2.83,0,0,1-.05.87.34.34,0,0,0,.68.06c0-.52.29-1.61-.3-1.94s-.94.12-1.16.52c-.81,1.46-.49,3.46-.37,5.05.1,1.26.57,2.81,2.19,2.41s2.07-2.29,2.42-3.61a.33.33,0,0,0,0-.22l0,0,.19.18.26.25c-.16.23-.33.44-.49.66a.35.35,0,0,0,0,.42.81.81,0,0,0,1.42-.6,1.21,1.21,0,0,0-.12-.47c.48-.69.93-1.4,1.34-2.13a1.08,1.08,0,0,0,.83.33h.07a2.48,2.48,0,0,0,.6.45,4.36,4.36,0,0,1,.6.33c.33.26.23.57.16,1s-.26,1-.4,1.49a3.08,3.08,0,0,0-1.61,1.7,1.72,1.72,0,0,0,.6,1.95.34.34,0,0,0,.51-.17,31.18,31.18,0,0,0,1-2.94l0-.09c.62-.35,1.26-.66,1.86-1a34,34,0,0,0,4.57-3.23C755.84,1010.17,755.38,1009.65,755,1009.94Zm-8.38-.92c0-.28.14-.78.46-.78-.14.31-.29.62-.45.92C746.67,1009.11,746.66,1009.06,746.66,1009Zm.88,8c-.29-.54.12-1.21.6-1.65C748,1015.88,747.75,1016.44,747.54,1017Z" transform="translate(-159.17 -253.07)"/><path class="cls-18" d="M767.63,1048.17H677.52V926.51h90.11Zm-89.08-1H766.6V927.55H678.55Z" transform="translate(-159.17 -253.07)"/><path class="cls-3" d="M736.77,912.14s-18.15,15.6-11.62,17.94S749.23,922,752.67,922H764s-11.21-13-17.13-12.64A25.21,25.21,0,0,0,736.77,912.14Z" transform="translate(-159.17 -253.07)"/><path class="cls-4" d="M633.33,884.44,610.44,1067.9a56.45,56.45,0,0,1-5.54-1.36l-26.12-10-.11,0s8.05-8.33,19-37.22S633.33,884.44,633.33,884.44Z" transform="translate(-159.17 -253.07)"/><path class="cls-3" d="M1198.8,1091.49s9.63,20.81,9.12,26.49-9.12,23.73-9.12,23.73l-10.39-47.79Z" transform="translate(-159.17 -253.07)"/><polygon class="cls-3" points="1032.06 748.98 1039.63 838.43 1029.23 840.85 1001.79 759.73 1032.06 748.98"/><polygon class="cls-4" points="808.46 461.67 911.76 400.69 982.72 450.42 884.42 507.73 808.46 461.67"/><path class="cls-9" d="M1020.7,742.84s-2.65,15-17.09,22.76-26.83,10-23.73,34.93-13.93,30.59-17,47.1-2.71,46.69,38.7,37.67,136.23-2.58,146.53-16,3.09-41.27-14.46-62.43,5.68-35-2.58-53.61S1107,715.48,1107,715.48,1038.82,702.54,1020.7,742.84Z" transform="translate(-159.17 -253.07)"/><polygon class="cls-3" points="881.09 1175.9 895.06 1234.75 915.99 1234.63 916.76 1175.9 881.09 1175.9"/><polygon class="cls-3" points="1057.14 1178.41 1096.89 1234.75 1112.39 1214.86 1088.46 1170.67 1057.14 1178.41"/><path class="cls-3" d="M1095.24,835.92c.14.06-2.56,65.51-13.78,65.63-2.35,0-19.7-45.83-21.91-46.44-12-3.27-13.69-32.63-13.53-32.66,5.08-1,6.55-8,6.44-38l2.3.45,38.62,7.65s-.88,12.15-.9,23.6C1092.45,825.77,1093,834.89,1095.24,835.92Z" transform="translate(-159.17 -253.07)"/><path class="cls-5" d="M939.22,770.25,938,767.61c28.1-13.37,29.61-45,29.57-52.29a2.37,2.37,0,0,1,1.4-2.16h0a1.29,1.29,0,0,1,1.82,1.19C970.69,722.85,968.53,756.3,939.22,770.25Z" transform="translate(-159.17 -253.07)"/><polygon class="cls-6" points="778.79 514.54 774.87 515.16 777.12 519.68 780.04 517.18 778.79 514.54"/><path class="cls-5" d="M934,768.22s-5.18,2.36-6.56,1c0,0,.59,4.59,2.71,5.49,0,0,4.38-.53,6.1-2Z" transform="translate(-159.17 -253.07)"/><path class="cls-19" d="M1093.38,792.55s-.88,12.15-.9,23.6c-21.62-.6-33-20.32-37.72-31.25Z" transform="translate(-159.17 -253.07)"/><path class="cls-9" d="M1046.81,786.26s-14.64-15.31-20.33-29.77c-4.06-10.33-6.61-51.13,34.44-53.45a55.32,55.32,0,0,1,24.19,4c9.84,4.1,24.88,14.21,17.89,51.67l-1.27,12.43Z" transform="translate(-159.17 -253.07)"/><path class="cls-20" d="M1267.83,1455.06s-10.26,1.77-18.69,2.41c-1.87.14-3.65.22-5.2.22-4.06,0-11.37-1.52-16.28-2.67l-.37-.08c-2.16-.51-3.8-.93-4.41-1.09l-.26-.06s-51.19-57-79.9-148.35q-1-3.2-2.13-6.45c-15.71-45.82-48.29-103.33-65.46-155.4q-4.1-12.42-7.38-23.48-1.07-3.54-2-7c-12.65-44-16.31-72.82-19.68-103.66l103.21,26.26S1192.57,1223.61,1267.83,1455.06Z" transform="translate(-159.17 -253.07)"/><path class="cls-3" d="M1100.14,798.66s-50,10.93-56.29-20.29-17-50.83,14.59-59.13,40.27,2.35,44.92,12.26S1113,795,1100.14,798.66Z" transform="translate(-159.17 -253.07)"/><path class="cls-9" d="M1081.12,713.87s-6.34,39.4-26.31,49.06-30.25,5.86-30.25,5.86,13.57-16.09,12.41-39.17C1037,729.62,1067.25,698.52,1081.12,713.87Z" transform="translate(-159.17 -253.07)"/><path class="cls-9" d="M1078.32,717.53s11.9,6.11,16,13.56,12.63,10.09,13.18,22.07c0,0,5.32-27-9.14-38.72C1083,702,1078.32,717.53,1078.32,717.53Z" transform="translate(-159.17 -253.07)"/><path class="cls-3" d="M1053.53,1484.53a56.68,56.68,0,0,1-2.66,24.13s-3.43,15.61,11.94,15.9,19.14-1.16,17.4-10.74-5-26.12-5-26.12Z" transform="translate(-159.17 -253.07)"/><path class="cls-21" d="M1050.87,1508.66s-2.85,14.74-1.11,22.57c0,0,4.64,3.48,15.81,3.48,10.58,0,16.09-3.48,16.09-3.48s.33-16.15-2.5-23C1079.16,1508.26,1068.27,1524.61,1050.87,1508.66Z" transform="translate(-159.17 -253.07)"/><path class="cls-3" d="M1308.6,1515.39s-28.34-31.46-37-47.46l-21.07,10.79,47.1,44.24,11-1.45Z" transform="translate(-159.17 -253.07)"/><path class="cls-21" d="M1326.6,1533.82s-30.45,0-35.67-.58-9.43-8.12-15.08-19.43c-2.32-4.63-7.51-7.18-12.84-8.58v26.2h-8l-7.62-27.84c-5-9.22-.4-17.59,3.14-24.87,4.1,0,15.15,2.8,36.09,26.39,6.88,7.75,14.48,10.51,22,10.28a1.53,1.53,0,0,0,.31.16C1326.31,1523.38,1326.6,1533.82,1326.6,1533.82Z" transform="translate(-159.17 -253.07)"/><path class="cls-22" d="M1249.14,1457.47c-1.87.14-3.65.22-5.2.22-4.06,0-11.37-1.52-16.28-2.67l-.37-.08-4.41-1.09-.26-.06s-51.19-57-79.9-148.35q-1-3.2-2.13-6.45c-15.71-45.82-48.29-103.33-65.46-155.4q-4.1-12.42-7.38-23.48-1.07-3.54-2-7l18.25-13.86s54.82,88.75,71.78,172.27C1169.8,1340.78,1230.35,1430.53,1249.14,1457.47Z" transform="translate(-159.17 -253.07)"/><path class="cls-20" d="M1085.87,1279.34c.31,40.61-1.75,134-7,172.65,0,0-5,4.44-17.45,4.49-12.74,0-18.44-4.65-18.44-4.65-13.27-67.21-22.71-122.83-29.58-170.76-5.64-39.32-10.65-73-14.5-102.07-3.42-25.72,18.16-95.37,18.16-95.37l81-7.9C1096.69,1146.89,1085.69,1255.73,1085.87,1279.34Z" transform="translate(-159.17 -253.07)"/><path class="cls-22" d="M1061.38,1456.48a31.65,31.65,0,0,1-18.44-4.65c-13.27-67.21-22.71-122.83-29.58-170.76-5.64-39.32-10.65-73-14.5-102.07-3.42-25.72,18.16-95.37,18.16-95.37l27.47,17.57s-39,35.44-29.39,102.43S1048.05,1447,1061.38,1456.48Z" transform="translate(-159.17 -253.07)"/><path class="cls-13" d="M1189,1027.53a95.76,95.76,0,0,1-16.41,3.52c-9,1.31-17.74,2.15-23.35,4.69-16.55,7.51-56.7-214.16-56.7-214.16s29.23.28,42.64,21.42,65.62,125.58,70.26,159C1207.51,1017.09,1199.71,1023.9,1189,1027.53Z" transform="translate(-159.17 -253.07)"/><path class="cls-13" d="M1249.14,1326.48s-2.68,6.71-10.05,16.12a118.16,118.16,0,0,1-14.73,15.57c-16.41,14.53-42.58,30.26-83,38.06-2.15.41-4.32.8-6.55,1.17-12.18,2-23.88,3.46-35,4.44a451.06,451.06,0,0,1-60.37,1.29c-11.86-.55-22.29-1.53-31.05-2.62-19.8-2.47-31.08-5.51-31.08-5.51s0-200.32,16.51-319.28c9.14-65.87,39.79-253.23,39.79-253.23l15.24-2.35,36.54,81.41,7.15-80,16.62,5.33a24.86,24.86,0,0,1,16.49,17.58Z" transform="translate(-159.17 -253.07)"/><polygon class="cls-14" points="972.19 765.72 887.41 757.12 901.15 634.29 985.93 642.88 972.19 765.72"/><polygon class="cls-23" points="901.15 634.29 895.72 633.88 882.94 756.61 887.41 757.12 901.15 634.29"/><path class="cls-3" d="M989.21,950.66s59.53,18.19,116.42,26.32c0,0,18.77,8.12,9.95,10.34-2.25.57-116.18,25.41-133.07,9.3Z" transform="translate(-159.17 -253.07)"/><path class="cls-13" d="M1048.7,820.15s-44.53,5.39-52,14.38C973,863,951.5,984.35,970.07,1012.39c22.19,33.48,56.36-19.07,67.07-50C1042.7,946.31,1051.75,849.33,1048.7,820.15Z" transform="translate(-159.17 -253.07)"/><path class="cls-3" d="M1100,976.15s7-.65,8.32-2.88c2.66-4.47,6.85-4.42,10.35-5s7.43-4.42,8.12-3.65-2.58,5-4.41,6.57a15.18,15.18,0,0,0,6.24-1c2.49-1.18,11.21-11.13,11.25-6.85.1,10.32-.7,12-9.54,19.26-7.26,6-31.89,8.22-31.89,8.22Z" transform="translate(-159.17 -253.07)"/><path class="cls-4" d="M1048.58,948l-1.74,17.44a60.12,60.12,0,0,1-9.7-3.06c-24.42-9.77-14.78-58.32-14.78-58.32C1026.16,923.46,1038.4,938.47,1048.58,948Z" transform="translate(-159.17 -253.07)"/><path class="cls-13" d="M1107,715.48s-36.11-13.71-86.25,27.36l1-9.38a30.32,30.32,0,0,1,12-21.08c7.64-5.66,19.82-11.91,38.12-14.49a34,34,0,0,1,32.47,13.92Z" transform="translate(-159.17 -253.07)"/><path class="cls-4" d="M1189,1027.53a95.76,95.76,0,0,1-16.41,3.52l-23.43-103.41S1188.58,1007.13,1189,1027.53Z" transform="translate(-159.17 -253.07)"/><path class="cls-10" d="M1082.25,781.5s2.31,4.44,5.68,4.47,12-.85,12.63-1.63a42.55,42.55,0,0,0,2.26-5.5S1088.64,778.58,1082.25,781.5Z" transform="translate(-159.17 -253.07)"/><path class="cls-3" d="M2244.06,913a47.12,47.12,0,0,0-8-8.56c-4.26-3.29-8.76-9.45-7.44-11.45s14.13-11.41,14.13-11.41l6.83,16.89Z" transform="translate(-159.17 -253.07)"/><polygon class="cls-4" points="2195.41 462.9 2306.93 418.7 2369.31 478.85 2263.3 520.2 2195.41 462.9"/><path class="cls-3" d="M2293.74,954.24l-44.4-57L2244.06,913s45.48,103.42,66.3,93.8C2320.07,1002.3,2293.74,954.24,2293.74,954.24Z" transform="translate(-159.17 -253.07)"/><path class="cls-24" d="M2432.52,768.28s-21.66,12.76-8.37,37.49c0,0-19-3.48-23.06-9.14a15,15,0,0,0,1.18,3.55s-22.22-2.82-26.32-11.11c-8.45-17.08,12-16,20.9-33.75,11.58-23.16,29.74-41.37,55.42-28.58,0,0,35.91-2,19.67,44s-.89,50.08-.89,50.08-4.82,1-6.88.43c0,0-2.71-1.95-2.86-3.77,0,0-.1,2.77.45,3.81,0,0-17-2.82-23.59-11.26S2427.59,777.35,2432.52,768.28Z" transform="translate(-159.17 -253.07)"/><path class="cls-3" d="M2401.24,842.36l-.07,0C2401,842.37,2401.06,842.36,2401.24,842.36Z" transform="translate(-159.17 -253.07)"/><path class="cls-3" d="M2453.9,827.2c.63,5.71,1.4,10.82,1.73,13.26.25,1.75,4.2,32.87-3,33.18s-25.1,37.19-33.15,36.89c-9-.34-17-68.17-18.2-68.17,2.31-1,9.34-23.31,11.57-31.82,2.7-10.32,4.82-21.47,4.82-21.47l36.61,2.31,2.17.14a125.59,125.59,0,0,0-3,14.08c-.09.58-.18,1.18-.25,1.76C2452.52,812.22,2453.11,820.16,2453.9,827.2Z" transform="translate(-159.17 -253.07)"/><path class="cls-24" d="M2412.58,785.38s-5.94-18.83-4.74-33.26c.86-10.3,17.28-39.53,52.55-24.57,0,0,8.62-2.06,16.84,7.35,6.53,7.48,14.95,22.13-6.32,50.56l-6.19,9.87Z" transform="translate(-159.17 -253.07)"/><path class="cls-25" d="M2453.9,827.2c-25.61-7.5-36.48-37.08-36.48-37.08,10.83.31,24.94,7.83,36,15.48-.09.58-.18,1.18-.25,1.76C2452.52,812.22,2453.11,820.16,2453.9,827.2Z" transform="translate(-159.17 -253.07)"/><path class="cls-3" d="M2455.71,816.81s-46.27-11.44-38.7-40.14,6.69-49.51,36.55-43.42,32.69,18.54,32.49,28.74S2467.94,819,2455.71,816.81Z" transform="translate(-159.17 -253.07)"/><path class="cls-24" d="M2474.72,738.1s-21.52,30.32-42.2,30.18-27.69-7.56-27.69-7.56a56.67,56.67,0,0,0,26.5-27.64S2469.45,719.56,2474.72,738.1Z" transform="translate(-159.17 -253.07)"/><path class="cls-24" d="M2470.87,740s7.43,10,7.79,17.93-2.58,23.23,1.94,23.88c0,0,15.56-20.37,8.3-36.14C2481.22,729,2470.87,740,2470.87,740Z" transform="translate(-159.17 -253.07)"/><path class="cls-24" d="M2472.32,741.6s-18.32,32.88-45.73,37.7c0,0,30.16-15.19,38.39-37.91S2472.32,741.6,2472.32,741.6Z" transform="translate(-159.17 -253.07)"/><path class="cls-10" d="M2448.49,798.41s.58,4.37,3.36,5.4,10.19,2.91,10.94,2.44a36.69,36.69,0,0,0,3.52-3.87S2454.65,797.91,2448.49,798.41Z" transform="translate(-159.17 -253.07)"/><path class="cls-3" d="M2431.22,1237.48c-.6,2.45-1.18,4.88-1.76,7.29-3.49,14.49-6.74,27.93-8.78,39.18-2.66,14.64-3.29,25.53.2,30.1,9,11.81,6.72,75,3.75,120.48-1.75,27.07-3.75,47.87-3.75,47.87l-16.35,16.84s-5.18-26.87-11.71-59.48c-8.77-43.81-20-98-24.42-111.25-3.52-10.52-8.62-55.42-13.14-101.26-.22-2.29-.45-4.59-.67-6.89-.78-8-1.53-16-2.25-23.8-4.05-43.37,1.81-84.2,1.81-84.2s21.27-17.51,48.66-19.87c16.14-1.41,31.32,3.73,38.82,23.57C2452.55,1144.91,2441.48,1194.72,2431.22,1237.48Z" transform="translate(-159.17 -253.07)"/><path class="cls-25" d="M2431.21,1237.47c-22.4-16.18-53.92-45-65.36-92.17-2.19-23.47,16.31-45.77,37-52.81,16.15-1.41,31.32,3.73,38.82,23.56C2452.55,1144.9,2441.49,1194.73,2431.21,1237.47Z" transform="translate(-159.17 -253.07)"/><path class="cls-3" d="M2512.92,952.38,2623,980.82v12.86s-109.58-1.28-116.64-13.49S2512.92,952.38,2512.92,952.38Z" transform="translate(-159.17 -253.07)"/><path class="cls-3" d="M2623,1376.15l-5.14,21.25s-22.75-11.75-51.62-26.94c-45-23.69-104.86-55.76-116.6-64.76-7.73-5.94-18-38.17-27.42-74.63-14.11-54.36-26.54-118.11-26.54-118.11s20.87-80.3,76.77-31.15c33.44,29.41,28.25,86.09,24.58,130.17-2.44,29.57-4.19,53.48,6.9,59.67,15.93,8.89,54.53,41.37,81.81,73.16,9.78,11.39,18.11,22.7,23.41,32.81Z" transform="translate(-159.17 -253.07)"/><path class="cls-3" d="M2623,980.82s20.2-10,28.23-10.91,21.52-1.28,21.52,0-14.46,10.26-18.31,10.91-11.24,6.12-9,6.76,14.13-2.09,14.29,0-7.23,3.37-8.51,5-5.78,3.53-13,2.57-15.22-1.45-15.22-1.45Z" transform="translate(-159.17 -253.07)"/><path class="cls-13" d="M2623,1283.55c-71.1,102.37-254.53,113.85-254.53,113.85-29.78-108.7-17.58-383.54-10.76-485.7-.42-17.85.27-32.93,3.2-38.73,4.56-9.05,29.36-24.74,38.26-32.53a15.08,15.08,0,0,1,3.84-1c1.33,4.68,17.86,60.77,19.5,59.6S2452,844.63,2455,838.33c3,.09,5,.15,5.63.19,4.92.24,31.45,5.55,33.67,9.83.78,1.49,8.4,21.68,18,48.4a.42.42,0,0,0,0,.07c17.94,50.13,44.25,40.72,54.7,55.57,6.57,9.32,3.74,26.72-8.44,41.76-1,1.27-2.13,2.53-3.3,3.76-9.27,9.81-21.84,15.61-42.3,12.6-5.09-.75-15.38-5.67-23.78-12.93C2509.27,1073.21,2623,1283.55,2623,1283.55Z" transform="translate(-159.17 -253.07)"/><path class="cls-26" d="M2404.25,836.85l-9.63,5.51s26.28,74.34,27.58,74,40.78-77.6,40.78-77.6l-8.05-3.36-32.4,63.65Z" transform="translate(-159.17 -253.07)"/><path class="cls-13" d="M2486.2,741s-33.69-18.9-89.35,14.32l2.4-9.13a30.34,30.34,0,0,1,15-19.07c8.39-4.47,21.36-8.85,39.84-8.71A34.07,34.07,0,0,1,2484.15,737Z" transform="translate(-159.17 -253.07)"/><path class="cls-5" d="M2318.31,765.23l-.83-2.81c29.84-8.85,36.24-39.83,37.33-47.06a2.37,2.37,0,0,1,1.73-1.92h0a1.29,1.29,0,0,1,1.6,1.47C2356.77,723.29,2349.43,756,2318.31,765.23Z" transform="translate(-159.17 -253.07)"/><polygon class="cls-6" points="2158.31 509.35 2154.34 509.35 2155.86 514.17 2159.14 512.16 2158.31 509.35"/><path class="cls-5" d="M2313.51,762.42s-5.48,1.52-6.64,0c0,0-.12,4.63,1.83,5.85,0,0,4.4.15,6.34-1Z" transform="translate(-159.17 -253.07)"/><path class="cls-10" d="M2406.22,843.55s8.8,16.18,43.84,1.44l-27.53,54.08Z" transform="translate(-159.17 -253.07)"/><path class="cls-13" d="M2394.62,842.35s-4.57,153.91-42.53,183.74a23.07,23.07,0,0,1-8.54,4.37c-19.18,4.89-33.11-6.54-42.54-22.36-13.11-22-17.55-52.48-15.32-59.5,4.23-13.37,14,10.28,34.46,3.79s26-89,40.3-101C2364.18,848.24,2394.62,842.35,2394.62,842.35Z" transform="translate(-159.17 -253.07)"/><path class="cls-5" d="M2209.39,951.88a111.11,111.11,0,0,1-11.17-7.07,46,46,0,0,1-6.75-5.85,14.18,14.18,0,0,1-2.34-3.34s46.35-55.78,50-62.34,38.65-60.68,38.65-60.68a88.68,88.68,0,0,1,9.42,5.34c1.9,1.24,3.94,2.67,5.9,4.24a36.9,36.9,0,0,1,9.11,10s-50.91,51.58-54.5,59S2209.39,951.88,2209.39,951.88Z" transform="translate(-159.17 -253.07)"/><path class="cls-27" d="M2198.22,944.81a46,46,0,0,1-6.75-5.85,14.18,14.18,0,0,1-2.34-3.34s46.35-55.78,50-62.34,38.65-60.68,38.65-60.68a88.68,88.68,0,0,1,9.42,5.34c1.9,1.24,3.94,2.67,5.9,4.24-14.29,14.59-52.87,54.36-56.17,61.17C2233.76,890,2208.63,928.81,2198.22,944.81Z" transform="translate(-159.17 -253.07)"/><path class="cls-24" d="M2245.89,862.39s-13.67,13.26-15.24,22.3l14.3,11.47s12.51-12.25,16.47-21.31Z" transform="translate(-159.17 -253.07)"/><path class="cls-3" d="M2249.34,897.22s1-9-1.1-12.16-2.25-11.9-4.18-11-.69,8.07-1.91,11.53-3,19.52,1.91,22.58S2249.34,897.22,2249.34,897.22Z" transform="translate(-159.17 -253.07)"/><path class="cls-3" d="M2235.48,874.64s-5.69-.88-7.76,2.9-4.65,9.92-.74,12.35S2235.48,874.64,2235.48,874.64Z" transform="translate(-159.17 -253.07)"/><path class="cls-10" d="M2424.63,1434.53c-1.75,27.07-3.75,47.87-3.75,47.87l-16.35,16.84s-5.18-26.87-11.71-59.48C2392.82,1439.76,2411.15,1446.14,2424.63,1434.53Z" transform="translate(-159.17 -253.07)"/><path class="cls-7" d="M2437.32,1506.74l-8.82,4.77c-3.21,1.14-5.86,1.46-9.1,2.71-4.93,1.89-8.4,5.6-8.57,6.27-2.48,10.11-6,9.47-6,9.47l-35.44.34c-1.67-.84,1.16-8,2.52-9.33,3.35-3.3,13.38-1.64,17-12,2.07-5.84,12.24-24,12.24-24l.07-.06c.34-.18,2.23-.56,12.47,1.57,5.29,1.1,7.49-9.64,7.49-9.64a10,10,0,0,1,3.52,1.65,10.68,10.68,0,0,1,3.92,5.32c1.27,3.68,6.47,9,10.21,12.44,2.26,2.1,4,3.53,4,3.53S2444.39,1501.68,2437.32,1506.74Z" transform="translate(-159.17 -253.07)"/><path class="cls-10" d="M2623,1376.15l-5.14,21.25s-22.75-11.75-51.62-26.94c11.23-7.12,16.78-17.68,19.5-25.65,9.78,11.39,18.11,22.7,23.41,32.81Z" transform="translate(-159.17 -253.07)"/><path class="cls-7" d="M2652.47,1384.4l-.14,0c-.66-.17-3.73-1.18-5.76-6-1.34-3.21-1.74-5.84-3-9l-5-8.68c-5.26-6.93-7.1-5.31-7.1-5.31s-1.38,1.76-3.41,4.09c-3.35,3.84-8.5,9.19-12.14,10.57a10.45,10.45,0,0,0-5.2,4.07,10.07,10.07,0,0,0-1.56,3.56s10.81,1.89,9.86,7.21c-1.83,10.3-1.4,12.17-1.21,12.51l.07.07s18.42,9.64,24.3,11.54c10.49,3.35,16,10.48,19.36,13.73a6.05,6.05,0,0,0,5.15,1.63c2.77-.44,6.35-1.33,7.14-3Z" transform="translate(-159.17 -253.07)"/><path class="cls-4" d="M2415.26,946.56a5.32,5.32,0,1,1,5.32,5.32A5.32,5.32,0,0,1,2415.26,946.56Z" transform="translate(-159.17 -253.07)"/><path class="cls-4" d="M2415.26,986.05a5.32,5.32,0,1,1,5.32,5.32A5.32,5.32,0,0,1,2415.26,986.05Z" transform="translate(-159.17 -253.07)"/><path class="cls-4" d="M2558.51,994.15c-1,1.27-2.13,2.53-3.3,3.76-9.27,9.81-21.84,15.61-42.3,12.6-5.09-.75-15.38-5.67-23.78-12.93,0,0-16.87-46.1-14.6-52.6s34.78,44,61.76,46.39C2546.83,992.29,2554,993.15,2558.51,994.15Z" transform="translate(-159.17 -253.07)"/><path class="cls-4" d="M2360.13,958.31l-8,67.78a23.07,23.07,0,0,1-8.54,4.37c-19.18,4.89-33.11-6.54-42.54-22.36,9.83,1.36,33.67,3.49,38.88-6.89C2346.48,988,2360.13,958.31,2360.13,958.31Z" transform="translate(-159.17 -253.07)"/><path class="cls-28" d="M1894.61,589.11s9.56-8.62,11.89-14.66,2-16.19,2-22.77a2.65,2.65,0,0,0-3.58,2.13c-.7,3.13-2,10.4-4.64,11.86s-8.6,1.29-10,8.78S1894.61,589.11,1894.61,589.11Z" transform="translate(-159.17 -253.07)"/><path class="cls-28" d="M1872.75,590.57s-8.69-17.79-6.93-23.58,28.45-12.14,32-9.41,0,36,0,36Z" transform="translate(-159.17 -253.07)"/><path class="cls-28" d="M2153.67,1126.45s-1.28,14.68,3.83,21.71,7.88,13.4,9.58,10.21-2.77-14.26-1.28-14,5.62,13.19,7.71,17.23,6.55,10.43,9.53,7.24-2.77-33.41-5.11-37.24-7.23-12.35-7.23-12.35Z" transform="translate(-159.17 -253.07)"/><polygon class="cls-4" points="1810.94 430.73 1912.55 373.58 1980.83 458.17 1887.79 503.31 1810.94 430.73"/><path class="cls-24" d="M2012.78,710.75s-2.12,9.12-8.08,12.36,3.4,12,1.06,18.48,7.11,14.78,7.11,14.78l65.63,7.56A18.85,18.85,0,0,0,2089,748.48c.86-11.28,1.86-25.37,1.86-25.37l-28.67-21.88-41.29,2Z" transform="translate(-159.17 -253.07)"/><path class="cls-5" d="M1792.27,601.32a133,133,0,0,1-5.15-14.88A55.54,55.54,0,0,1,1785.2,576a16.48,16.48,0,0,1,.3-4.84s84.6-17.47,92.9-20.85,81.07-27.75,81.07-27.75a104.29,104.29,0,0,1,4.8,12c.85,2.57,1.68,5.42,2.34,8.33,1.21,5.41,1.85,11.14,1,16.11,0,0-85.72,10.18-94.59,14.43S1792.27,601.32,1792.27,601.32Z" transform="translate(-159.17 -253.07)"/><path class="cls-27" d="M1787.12,586.44A55.54,55.54,0,0,1,1785.2,576a16.48,16.48,0,0,1,.3-4.84s84.6-17.47,92.9-20.85,81.07-27.75,81.07-27.75a104.29,104.29,0,0,1,4.8,12c.85,2.57,1.68,5.42,2.34,8.33-24.14,3-89.61,11.3-97.75,15.19C1861,561.82,1808.7,579.29,1787.12,586.44Z" transform="translate(-159.17 -253.07)"/><path class="cls-24" d="M1892.76,545.15s-22.58,2.18-30.76,9.44l4.78,21.3s20.75-2.11,31.18-7.6Z" transform="translate(-159.17 -253.07)"/><path class="cls-7" d="M1913.27,1530.3s0-13.59,1.94-18.11,9-22.91,9-22.91H1952s5.16,16.78,5.48,22.27,0,18.75,0,18.75Z" transform="translate(-159.17 -253.07)"/><path class="cls-7" d="M2089.48,1530.3s0-13.59-1.94-18.11-9-22.91-9-22.91h-27.75s-5.17,16.78-5.49,22.27,0,18.75,0,18.75Z" transform="translate(-159.17 -253.07)"/><path class="cls-28" d="M2020.06,765.49s-5.57,29.75-11.45,42.56l-33.55,16.47,47,92.8,64.45-58.19-21.41-41.76s-2-41.35,4.54-55.52S2020.06,765.49,2020.06,765.49Z" transform="translate(-159.17 -253.07)"/><path class="cls-29" d="M2019.26,769.59s5.68,23.1,22.73,25.23,23.88-16.47,23.88-16.47Z" transform="translate(-159.17 -253.07)"/><path class="cls-28" d="M2041.34,786.13c-12.27-2.11-32.4-22-29.28-42.27l4.87-31.66c1.14-7.41,7.24-12.68,13.56-11.71l46.94,7.22c6.32,1,10.55,7.83,9.41,15.24l-4.59,29.88C2079,774.1,2055.41,788.56,2041.34,786.13Z" transform="translate(-159.17 -253.07)"/><path class="cls-26" d="M1916.75,1059.78c-.09-3.69,4.83,147.2-2.4,232.87-7.15,84.61.05,202.33.05,202.33s23.22,12.81,48.39,0c0,0,27.6-163.43,27.43-202.33-.19-41.42,30-226.4,30-226.4Z" transform="translate(-159.17 -253.07)"/><path class="cls-26" d="M2088.48,1495s-23.22,12.81-48.39,0c0,0-27.6-163.43-27.42-202.33.07-17.5-5.27-60.6-11.48-104.55-8.49-60.13-18.57-121.85-18.57-121.85l107.52-6.72s-8.87,148.53-1.61,233.12S2088.48,1495,2088.48,1495Z" transform="translate(-159.17 -253.07)"/><path class="cls-30" d="M2031.27,746c-4.59-.71-13.6-3.14-14-11.35a7.29,7.29,0,0,1,2.27-6,8.66,8.66,0,0,1,7.14-1.82l14.1,2.17c2.68.41,4.43,1.47,5.21,3.15,1.31,2.82-.59,6.46-1.47,7.89-3,4.9-6.39,6.88-10.68,6.23A24,24,0,0,1,2031.27,746Zm-4.71-18.24a7.71,7.71,0,0,0-6.38,1.59,6.41,6.41,0,0,0-2,5.26c.2,4.21,2.87,7.29,7.94,9.16a28.25,28.25,0,0,0,7.76,1.57h0c3.89.6,7-1.24,9.77-5.79.63-1,2.57-4.53,1.42-7-.64-1.37-2.15-2.25-4.51-2.61Z" transform="translate(-159.17 -253.07)"/><path class="cls-30" d="M2063.77,751a24.72,24.72,0,0,1-2.56-.52c-4.28-.67-6.93-3.58-8.31-9.16-.41-1.63-1.12-5.67,1-8,1.25-1.37,3.24-1.85,5.92-1.44l14.09,2.17a8.63,8.63,0,0,1,6.27,3.88,7.32,7.32,0,0,1,.36,6.41C2077.68,752.1,2068.35,751.71,2063.77,751Zm-4.13-18.15c-2.35-.36-4,0-5.08,1.14-1.84,2-1,6-.75,7.11,1.28,5.17,3.69,7.86,7.57,8.46h.06a27.94,27.94,0,0,0,7.87.84c5.4-.26,8.87-2.4,10.32-6.36a6.36,6.36,0,0,0-.29-5.6,7.67,7.67,0,0,0-5.6-3.43Z" transform="translate(-159.17 -253.07)"/><path class="cls-30" d="M2044.24,736.21a.55.55,0,0,1-.45-.4.55.55,0,0,1,.38-.69c.25-.07,6.16-1.7,10.66,1.65a.56.56,0,0,1,.11.79.55.55,0,0,1-.78.11c-4.07-3-9.62-1.49-9.68-1.47A.65.65,0,0,1,2044.24,736.21Z" transform="translate(-159.17 -253.07)"/><path class="cls-10" d="M2031.83,824.46l-31.76-13.76s-16.43,130.6,5.49,138.68c0,0,62.56-111.09,58.3-125.35Z" transform="translate(-159.17 -253.07)"/><path class="cls-11" d="M2011.73,802.42s-9,1.54-13.63,6c0,0,6.81,22.14,24.9,28.74l7.76-12.7S2016,817.48,2011.73,802.42Z" transform="translate(-159.17 -253.07)"/><path class="cls-11" d="M2030.76,824.46s29.59-1.14,34-15.4a24.1,24.1,0,0,1,5.69,16.18s-9.37,14.13-32.78,14.3Z" transform="translate(-159.17 -253.07)"/><path class="cls-15" d="M2033.23,763.93s15.74.7,22.69,3.49c0,0-4.8,5.7-11.09,4.73S2034.15,768.15,2033.23,763.93Z" transform="translate(-159.17 -253.07)"/><path class="cls-28" d="M1921.75,717.55c-14.28,9-33.78,21.19-49.7,30.83a57.5,57.5,0,0,1-1.69-7.26c-5.28-33.66,2.39-150.55,2.39-150.55a33.91,33.91,0,0,1,10.78-3.13c10.36-.84,14.26,6.11,14.26,6.11S1915.84,696.37,1921.75,717.55Z" transform="translate(-159.17 -253.07)"/><path class="cls-13" d="M2174.63,1124.09l-10.77,4.47c-17.23,6.13-35.81-2.13-41.44-19.53-7.59-23.44-8.37-48.69-11.18-69.47-1.38-10.22-3-31.29-9.17-47.71,0,0,0,0,0,0l10.82,363.33c-162.15,11.48-241.26-81.72-241.26-81.72-4.19-98.36,35.11-320,49.43-396.8-6.91-15.6-56-60.4-64.16-104.37-3.81-20.42,8.12-34.87,22.61-44.62,18.23-12.29,40.51-17.14,40.51-17.14l52.41,70.06a32.1,32.1,0,0,1,4.4,5.75c4,8.23,25,21.9,25,21.9-.07.43,2.26,118.11,6.53,121.87,6.17-2.34,47.53-85.13,56.66-112.72a306.43,306.43,0,0,1,42.36,15.14s28.38,15.14,32.4,81.17c3.41,56,37.63,127.46,45.39,192.39A17.31,17.31,0,0,1,2174.63,1124.09Z" transform="translate(-159.17 -253.07)"/><path class="cls-24" d="M1996,804.16s3.83,114.11,8.72,142.67l72.77-125.75-10-3.71-57.52,104.2-5.67-113.36Z" transform="translate(-159.17 -253.07)"/><path class="cls-10" d="M2011.73,799.72s-9,1.54-13.63,6c0,0,6.81,22.13,24.9,28.73l7.76-10S2016,814.79,2011.73,799.72Z" transform="translate(-159.17 -253.07)"/><path class="cls-10" d="M2030.76,824.46s29.59-3.83,34-18.09a24.09,24.09,0,0,1,5.69,16.17s-9.37,14.14-32.78,14.31Z" transform="translate(-159.17 -253.07)"/><circle class="cls-4" cx="1833.55" cy="705.95" r="5.38"/><path class="cls-4" d="M1977.24,1007.42a5.38,5.38,0,1,1,5.38,5.38A5.37,5.37,0,0,1,1977.24,1007.42Z" transform="translate(-159.17 -253.07)"/><path class="cls-5" d="M1977.46,737.35l1.79-1.69c-18-19-9.63-44.24-7.4-50a2,2,0,0,0-.44-2.12h0a1.09,1.09,0,0,0-1.79.39C1967.1,690.65,1958.69,717.55,1977.46,737.35Z" transform="translate(-159.17 -253.07)"/><polygon class="cls-6" points="1820.08 482.6 1822.97 484.26 1819.83 487.13 1818.29 484.29 1820.08 482.6"/><path class="cls-5" d="M1982.14,737.33s3.35,3.42,4.83,2.79c0,0-1.85,3.43-3.79,3.5,0,0-3.27-1.75-4.18-3.42Z" transform="translate(-159.17 -253.07)"/><path class="cls-24" d="M2014.43,717.62s12.6.85,16.33-5.53c0,0,10.24,2.55,14.75-1.28,0,0,15.8,3.19,16.22-3.19,0,0,12.07,24.15,25.3,19.1s-21.16-29.53-21.16-29.53l-45,6Z" transform="translate(-159.17 -253.07)"/><path class="cls-13" d="M2015.36,699.53l-2.58,11.22s35.15-12.48,78,12.36l-.5-18.07a12.21,12.21,0,0,0-4.43-9.1c-7.76-6.39-26.32-18.94-60.68-9C2020.4,688.39,2016.48,694.65,2015.36,699.53Z" transform="translate(-159.17 -253.07)"/><path class="cls-28" d="M1861.76,561.16c-.13-.68-2.44-5.52.73-10s24-11.36,25.93-7.73.71,16.23-6,19S1862.27,564,1861.76,561.16Z" transform="translate(-159.17 -253.07)"/><path class="cls-4" d="M1921.05,876.64c-6.91-15.6-56-60.4-64.16-104.37-3.81-20.42,8.12-34.87,22.61-44.62,0,0-6.79,30.88,12.47,58.75S1921.05,876.64,1921.05,876.64Z" transform="translate(-159.17 -253.07)"/><path class="cls-4" d="M2163.86,1128.56c-17.23,6.13-35.81-2.13-41.44-19.53-7.59-23.44-8.37-48.69-11.18-69.47-1.38-10.22-3-31.29-9.17-47.71.58.91,19.24,30.4,36,78.15C2155.1,1118.49,2149.78,1125.57,2163.86,1128.56Z" transform="translate(-159.17 -253.07)"/><path class="cls-31" d="M2822,1529.5h-91.45c-4.9-4.16,3.39-13.6,12.05-14.23,3.77-.29,8.52.5,14,1.65,1.26-16.72,8.45-91.86,35.53-88.84,30.46,3.38,0,33.09-8.61,50.68-6.37,13-13.1,31.72-16.17,40.53,2.47.54,5,1.06,7.64,1.55,4-12.4,19.06-54.09,38.16-51.66,22.43,2.84,13.41,19.56-2.48,29.48-11.67,7.3-26,17.67-32.79,22.68a97.41,97.41,0,0,0,17.89,1.43C2811.42,1522.4,2819.07,1527,2822,1529.5Z" transform="translate(-159.17 -253.07)"/><path class="cls-31" d="M502.32,1529.5s-42.18-115.83-71.79-106S502.32,1529.5,502.32,1529.5Z" transform="translate(-159.17 -253.07)"/><path class="cls-31" d="M486.17,1529.5c-3.59,0-70.89-69.84-75.38-51.56S486.17,1529.5,486.17,1529.5Z" transform="translate(-159.17 -253.07)"/><path class="cls-31" d="M558,1529.5s-27.84-25.52-63.08-18.88-50.29,13.92-72.42,8.89-33.45,10-33.45,10Z" transform="translate(-159.17 -253.07)"/><path class="cls-3" d="M1528.26,1240.93c6.49-10.17-48.19-122.62-18.84-185.24,3.66-7.8,71.81,3.86,71.81,3.86s13.94,158.12,6.11,200c-5.53,29.56-16.37,116.79-22.24,165.46l-.06.46c-1.39,11.58-2.51,20.93-3.2,26.74a28,28,0,0,0,1.51,13c4.35,11.9,13.78,36.54,18.5,39.93,0,0-25.79,7.38-30.74,4.48s-17.54-48.35-17.54-48.35a22.37,22.37,0,0,0,2.23-13.74c-1-6.19-2.47-15.89-4.14-27.84h0C1509.42,1329.67,1512.77,1265.22,1528.26,1240.93Z" transform="translate(-159.17 -253.07)"/><path class="cls-3" d="M1382.6,1442.72a22.26,22.26,0,0,0,7-12.07c1.27-6.14,3.31-15.75,6-27.51h0c11-92,36.89-151.15,60-168.39,9.66-7.22-1.75-131.75,47.83-180,6.18-6,65.82,29,65.82,29s-42.84,152.85-65,189.23c-15.62,25.7-56.58,103.48-79.28,146.93h0c-5.51,10.51-9.93,19-12.67,24.29a28.22,28.22,0,0,0-3.18,12.69c-.13,12.68-1.84,46.62,3.16,49.58a47.6,47.6,0,0,1,8,5.94s-23.53-2-26.4-2.18-20.87-56.58-21.22-57.66h0C1376.29,1448.67,1379.94,1445.11,1382.6,1442.72Z" transform="translate(-159.17 -253.07)"/><polygon class="cls-7" points="1201.82 1220.28 1195.91 1254.88 1199.04 1257.2 1217.55 1230.48 1201.82 1220.28"/><path class="cls-18" d="M1361.63,1476c20.2,10.58,23.19,45.89,26.4,53.5l36.9.11c5.57-1.88,3.38-9.77-4.64-17.16,0,0-23.53-2-26.4-2.18s-20.87-56.58-21.22-57.66C1364.19,1461.8,1356,1473,1361.63,1476Z" transform="translate(-159.17 -253.07)"/><path class="cls-26" d="M1393.89,1359c1.63,44.18,89.52,35.69,89.52,35.69l11.62-56.2,7.71-37.29,2.56-12.36-3.86-1.83-55.91-26.54-17.51-8.32-.71,2.21-30.14,94.4,0,0Z" transform="translate(-159.17 -253.07)"/><path class="cls-32" d="M1397.15,1348.76c25.39-26.11,97.88-10.3,97.88-10.3l7.71-37.29-1.3-14.19-55.91-26.54-18.22-6.11-30.14,94.4Z" transform="translate(-159.17 -253.07)"/><polygon class="cls-7" points="1367.72 1243.43 1372.54 1276.41 1377.87 1276.41 1380.38 1250.85 1367.72 1243.43"/><path class="cls-18" d="M1526.89,1496.5c11.21,5.18,23.48,27,29.17,33l46.57.33c5.83-4.77-14.54-20.19-20.78-24.71,0,0-25.79,7.38-30.74,4.48s-17.54-48.35-17.54-48.35C1528.06,1471.9,1518.64,1492.69,1526.89,1496.5Z" transform="translate(-159.17 -253.07)"/><path class="cls-26" d="M1505.3,1272.52l11.56,126.89c21.48,27.23,78.22,10.5,78.22,10.5s4.31-104.83,6.51-109l-8.22-2.42Z" transform="translate(-159.17 -253.07)"/><path class="cls-32" d="M1505.3,1272.52l11.56,126.89c.6-62.45,81.37-56.17,81.37-56.17l-4.86-44.7Z" transform="translate(-159.17 -253.07)"/><polygon class="cls-4" points="1445.07 423.41 1326.57 376.44 1260.29 440.36 1372.93 484.29 1445.07 423.41"/><path class="cls-9" d="M1548.74,698.11s.25,14.12,10.62,18.52c21.46,9.09,1,19.65,22.08,34.53,4.84,3.43,8.34,24.71-25.18,27.88s-37.68,6-37.68,6-24.88,15.95-52.44-.45c-16-9.5,4.15-36-3.18-42.72-9.87-9.06-11.18-38.79,3.18-51.07s37.33-19.39,37.33-19.39Z" transform="translate(-159.17 -253.07)"/><path class="cls-5" d="M1642.78,728.82l.88-3c-31.7-9.4-38.5-42.33-39.67-50a2.47,2.47,0,0,0-1.83-2h0a1.37,1.37,0,0,0-1.71,1.55C1601.92,684.26,1609.71,719,1642.78,728.82Z" transform="translate(-159.17 -253.07)"/><polygon class="cls-6" points="1484.49 472.77 1488.71 472.77 1487.09 477.89 1483.61 475.75 1484.49 472.77"/><path class="cls-5" d="M1647.88,725.84s5.83,1.62,7.06,0c0,0,.13,4.92-1.94,6.22,0,0-4.68.16-6.74-1.1Z" transform="translate(-159.17 -253.07)"/><path class="cls-3" d="M1556,787.8c-2.35-.3-9.47-6-12.69-14.68-3.87-10.46-7.22-21.84-7.22-21.84L1525.8,753l-27.52,4.5-2.25.37a131,131,0,0,1,5,16.32,84.07,84.07,0,0,1,2.58,22.59c-.28,5.86-3.34,7.42-5,8.59-.77.49,29,98.16,43.4,93.31C1554.52,894.42,1557.22,787.47,1556,787.8Z" transform="translate(-159.17 -253.07)"/><path class="cls-25" d="M1503.64,796.74c16.53-6.68,32.46-45.46,32.46-45.46a20.94,20.94,0,0,0-10.3,1.68c-9.12,3.65-18.4,12.4-24.73,21.19A84,84,0,0,1,1503.64,796.74Z" transform="translate(-159.17 -253.07)"/><path class="cls-3" d="M1493.08,781s49.13-8,43.7-38.48-2.75-52.11-34.35-48.31-35.6,16.52-36.26,27.15S1480.16,782.25,1493.08,781Z" transform="translate(-159.17 -253.07)"/><path class="cls-3" d="M1488.71,809.31s-82.9-24.95-88.79-31.88-20.23-99.06-20.24-112.31l-12.06,1.73s-8.94,104.77,1.42,128.54,114.9,61.2,114.9,61.2Z" transform="translate(-159.17 -253.07)"/><path class="cls-26" d="M1553.51,786.62s-10.18,31.74-50,11.77l41.86,92.08,10.93-82.33Z" transform="translate(-159.17 -253.07)"/><path class="cls-3" d="M1587.39,796s-5,16.51,91,68.84l70.81-48.49,8.5,7.12s-67.89,81.83-78.49,80.09-83.49-49.75-83.49-49.75Z" transform="translate(-159.17 -253.07)"/><path class="cls-13" d="M1326.42,1205.22a155,155,0,0,0,8.54,20.09c10.22,20.42,30.28,51.68,63.84,70.44,38.06,21.29,161.37,62,246.07,42.27,0,0-8-268-25.82-378.24-.41-2.55-.83-5-1.25-7.39,5.16,19.79,31.66,26.3,42.53,22.64,23.86-8,32.17-26.57,33.3-46.2,1.74-30.23-13.52-63-15.27-64-39.13-22.21-46.39-57.48-65.39-70.08-17-11.24-57.48-8.29-59.46-8.09l-8.87,88.07-41.17-76.31c-.06,0-66.43-5.79-103.55-21,0,0-111,153.61,26.45,151.59,0,35.38-16.53,67.53-32.48,115.35C1378.08,1091.78,1326.42,1205.22,1326.42,1205.22Z" transform="translate(-159.17 -253.07)"/><path class="cls-10" d="M1503.76,758.72s-.55,5-3.68,6.21-11.49,3.55-12.35,3a42.56,42.56,0,0,1-4.09-4.31S1496.76,758.31,1503.76,758.72Z" transform="translate(-159.17 -253.07)"/><path class="cls-3" d="M1380,665.18s5.08-3.53,2.4-13.23c-1.79-6.49-.58-11.76-2-11.6s-2.6,8.59-3.45,10.66c-.73,1.76-11.76-19.11-14.59-17.47s-8.32,9.88,4.86,38.39Z" transform="translate(-159.17 -253.07)"/><path class="cls-3" d="M1749.17,816.32s7.54-17.88,10-21.57c5-7.3,19.14-11.86,20.06-8.63s-9.09,8-9.52,15.42c-.12,2.06,4.11-1.94,6.72-3.5,1.57-.94,2.51-.16,1.69,1-4.16,6.06-6.43,12.28-10.41,14.58s-10.09,9.79-10.09,9.79Z" transform="translate(-159.17 -253.07)"/><polygon class="cls-33" points="1394.34 533.56 1385.47 621.63 1344.46 543.68 1329.54 543.73 1389.87 653.5 1405.35 533.09 1394.34 533.56"/><path class="cls-9" d="M1472.8,695.29s-14.41,17,31,25.26c14.58,2.66,21.9,16.76,17.92,28.66-5.89,17.65,9,36.65,30.92,29.81,17.45-5.45-11-86.95-26.45-88.19S1472.8,695.29,1472.8,695.29Z" transform="translate(-159.17 -253.07)"/><path class="cls-9" d="M1488.71,699.19s-14.57,10.47-15.81,18.85-4.64,20.37-10.21,11.9-6.5-19.92,0-27.65,21-11.22,24.14-8.55S1488.71,699.19,1488.71,699.19Z" transform="translate(-159.17 -253.07)"/><path class="cls-13" d="M1463,694.33s27.85-24,87,11.32l.79-14.59c-2.28-8.67-5-8.6-13-12.81-8.92-4.76-22.7-9.42-42.33-9.26-13.49.11-21.36-1.63-27.5,10.39Z" transform="translate(-159.17 -253.07)"/><path class="cls-5" d="M1831.57,861.82a131.71,131.71,0,0,0,9.82-12.29,55.1,55.1,0,0,0,5.32-9.22,16.59,16.59,0,0,0,1.33-4.67s-73.88-44.76-80.58-50.71-67.12-53.27-67.12-53.27a105.06,105.06,0,0,0-8.52,9.67c-1.66,2.14-3.4,4.55-5,7.08-3,4.69-5.46,9.87-6.35,14.83,0,0,77.38,38.26,84.32,45.24S1831.57,861.82,1831.57,861.82Z" transform="translate(-159.17 -253.07)"/><path class="cls-27" d="M1841.39,849.53a55.1,55.1,0,0,0,5.32-9.22,16.59,16.59,0,0,0,1.33-4.67s-73.88-44.76-80.58-50.71-67.12-53.27-67.12-53.27a105.06,105.06,0,0,0-8.52,9.67c-1.66,2.14-3.4,4.55-5,7.08,21.76,10.86,80.68,40.61,87,47C1780,801.63,1823.45,835.57,1841.39,849.53Z" transform="translate(-159.17 -253.07)"/><path class="cls-24" d="M1755.65,775.29s20.54,9.61,25.83,19.18l-11.63,18.47S1751,804,1743,795.36Z" transform="translate(-159.17 -253.07)"/><path class="cls-3" d="M1767.76,813.65a23.5,23.5,0,0,0,8.3-6c3.11-3.88,7.34-10.16,2.11-8.58s-14.51,8.13-18,8.74-2.24,3.33-2.48,4.11S1767.76,813.65,1767.76,813.65Z" transform="translate(-159.17 -253.07)"/><path class="cls-4" d="M1326.42,1205.22a155,155,0,0,0,8.54,20.09c22.25-23.54,53.26-61,74.87-106.09,37.28-77.77,16.54-190.21,16.54-190.21,0,35.38-16.53,67.53-32.48,115.35C1378.08,1091.78,1326.42,1205.22,1326.42,1205.22Z" transform="translate(-159.17 -253.07)"/><path class="cls-4" d="M1556.26,938.33a3.71,3.71,0,1,0-3.71,3.71A3.72,3.72,0,0,0,1556.26,938.33Z" transform="translate(-159.17 -253.07)"/><path class="cls-4" d="M1556.26,1005.77a3.71,3.71,0,1,0-3.71,3.71A3.71,3.71,0,0,0,1556.26,1005.77Z" transform="translate(-159.17 -253.07)"/><path class="cls-4" d="M1619.05,959.78c-.41-2.55-.83-5-1.25-7.39,5.16,19.79,31.66,26.3,42.53,22.64,23.86-8,32.17-26.57,33.3-46.2-2.58,1.34-41.31,21.13-59.32,9.5-18.35-11.85-29.71-38.67-30.06-39.49Z" transform="translate(-159.17 -253.07)"/><path class="cls-34" d="M2399.38,597.82s-10.9,8.2-23.46,7.52c-9.33-.51-18.88-8.68-19.26-9.24l-6.81,13.22s17.41,9.47,31.78,6c4.41-1.07,11.41-5.82,14.51-9.28A12.61,12.61,0,0,0,2399.38,597.82Z" transform="translate(-159.17 -253.07)"/><path class="cls-35" d="M2397.83,571l18.23-8.57s-.75,38.78-32.14,52.07C2383.92,614.53,2402.87,587.13,2397.83,571Z" transform="translate(-159.17 -253.07)"/><path class="cls-34" d="M464.81,950.6s-10.9,8.19-23.47,7.51c-9.32-.51-18.87-8.68-19.25-9.23l-6.81,13.21s17.41,9.48,31.78,6c4.41-1.07,11.41-5.82,14.51-9.28A12.59,12.59,0,0,0,464.81,950.6Z" transform="translate(-159.17 -253.07)"/><path class="cls-35" d="M463.26,923.8l18.23-8.56s-.75,38.77-32.14,52.06C449.35,967.3,468.3,939.91,463.26,923.8Z" transform="translate(-159.17 -253.07)"/><path class="cls-36" d="M1932.15,345.56s26.5-18.41,46.4,9l21.85-9.41s-10.79-17-53.15-9.48C1919.54,340.65,1932.15,345.56,1932.15,345.56Z" transform="translate(-159.17 -253.07)"/><path class="cls-37" d="M1906.05,363.56s7.21-29.78,61.57-29.78c0,0-20.37,1.93-36.28,28.37Z" transform="translate(-159.17 -253.07)"/><path class="cls-38" d="M1758.38,465.21s-14.64-9.25-16.18-20.42c0,0-14.25.77-17.34,5.39,0,0,6.55,18.5,14.26,22C1739.12,472.14,1756.45,473.3,1758.38,465.21Z" transform="translate(-159.17 -253.07)"/><path class="cls-38" d="M2728.91,1244.19s-14.64-9.25-16.18-20.42c0,0-14.25.77-17.33,5.39,0,0,6.55,18.49,14.25,22C2709.65,1251.12,2727,1252.28,2728.91,1244.19Z" transform="translate(-159.17 -253.07)"/><path class="cls-38" d="M339.28,1218.32s-14.64-9.25-16.18-20.42c0,0-14.25.77-17.33,5.39,0,0,6.55,18.5,14.25,22C320,1225.25,337.36,1226.41,339.28,1218.32Z" transform="translate(-159.17 -253.07)"/></svg>